<svg width="44" height="44" viewBox="0 0 44 44" fill="none" xmlns="http://www.w3.org/2000/svg">
<path d="M38 0H6C2.68629 0 0 2.68629 0 6V38C0 41.3137 2.68629 44 6 44H38C41.3137 44 44 41.3137 44 38V6C44 2.68629 41.3137 0 38 0Z" fill="#E3F2FD"/>
<path d="M31.6501 29.8799C30.2201 27.4099 28.0201 25.6398 25.4501 24.7998C26.7201 24.0398 27.7102 22.89 28.2602 21.52C28.8102 20.15 28.9002 18.63 28.5102 17.21C28.1202 15.78 27.2702 14.5199 26.0902 13.6299C24.9202 12.7299 23.4802 12.25 22.0002 12.25C20.5202 12.25 19.0801 12.7299 17.9101 13.6299C16.7301 14.5199 15.8801 15.78 15.4901 17.21C15.1001 18.63 15.1901 20.15 15.7401 21.52C16.2901 22.89 17.2802 24.0398 18.5502 24.7998C15.9802 25.6398 13.7803 27.4099 12.3503 29.8799C12.3003 29.9599 12.2602 30.0599 12.2502 30.1499C12.2302 30.2499 12.2402 30.3502 12.2602 30.4502C12.2902 30.5502 12.33 30.6402 12.39 30.7202C12.45 30.8002 12.5303 30.8699 12.6203 30.9199C12.7003 30.9699 12.8001 30.9998 12.9001 31.0098C13.0001 31.0198 13.1001 31.0202 13.1901 30.9902C13.2901 30.9602 13.3801 30.9201 13.4601 30.8501C13.5401 30.7901 13.6001 30.7099 13.6501 30.6299C15.4201 27.5699 18.5402 25.75 22.0002 25.75C25.4602 25.75 28.5803 27.5699 30.3503 30.6299C30.4003 30.7099 30.4602 30.7901 30.5402 30.8501C30.6202 30.9201 30.7102 30.9602 30.8102 30.9902C30.9002 31.0202 31.0003 31.0198 31.1003 31.0098C31.2003 30.9998 31.3 30.9699 31.38 30.9199C31.47 30.8699 31.5503 30.8002 31.6103 30.7202C31.6703 30.6402 31.7101 30.5502 31.7401 30.4502C31.7601 30.3502 31.7702 30.2499 31.7502 30.1499C31.7402 30.0599 31.7001 29.9599 31.6501 29.8799ZM16.7502 19C16.7502 17.96 17.06 16.9501 17.63 16.0801C18.21 15.2201 19.0301 14.5499 19.9901 14.1499C20.9501 13.7499 22.0102 13.6501 23.0202 13.8501C24.0402 14.0501 24.9801 14.55 25.7101 15.29C26.4501 16.02 26.9501 16.96 27.1501 17.98C27.3501 18.99 27.2503 20.0498 26.8503 21.0098C26.4503 21.9698 25.7801 22.7901 24.9201 23.3701C24.0501 23.9401 23.0402 24.25 22.0002 24.25C20.6102 24.25 19.2702 23.7 18.2902 22.71C17.3002 21.73 16.7502 20.39 16.7502 19Z" fill="#00AFF3"/>
</svg>
