<svg width="154" height="54" viewBox="0 0 154 54" fill="none" xmlns="http://www.w3.org/2000/svg">
<path d="M127 0H27C12.0883 0 0 12.0883 0 27C0 41.9117 12.0883 54 27 54H127C141.912 54 154 41.9117 154 27C154 12.0883 141.912 0 127 0Z" fill="#00AFF3"/>
<path d="M44 27C44 17.0589 35.9411 9 26 9C16.0589 9 8 17.0589 8 27C8 36.9411 16.0589 45 26 45C35.9411 45 44 36.9411 44 27Z" fill="#FEFEFE"/>
<path d="M31.75 29C31.75 29.15 31.7101 29.2899 31.6201 29.4199C31.5401 29.5399 31.42 29.6399 31.29 29.6899C31.15 29.7499 31.0001 29.7602 30.8501 29.7402C30.7101 29.7102 30.57 29.6398 30.47 29.5298C30.36 29.4298 30.29 29.2899 30.26 29.1499C30.24 28.9999 30.2501 28.85 30.3101 28.71C30.3601 28.58 30.4601 28.4599 30.5801 28.3799C30.7101 28.2899 30.85 28.25 31 28.25C31.2 28.25 31.39 28.3302 31.53 28.4702C31.67 28.6102 31.75 28.8 31.75 29ZM31.47 31.46C31.36 32.16 31 32.8098 30.45 33.2798C29.91 33.7398 29.22 34 28.5 34H27C26.2 34 25.4399 33.6801 24.8799 33.1201C24.3199 32.5601 24 31.8 24 31V28.4702C23.03 28.3502 22.14 27.8799 21.5 27.1499C20.86 26.4099 20.5 25.47 20.5 24.5V21.5C20.5 21.37 20.5499 21.2399 20.6499 21.1499C20.7399 21.0499 20.87 21 21 21H22.5C22.63 21 22.7601 21.0499 22.8501 21.1499C22.9501 21.2399 23 21.37 23 21.5C23 21.63 22.9501 21.7601 22.8501 21.8501C22.7601 21.9501 22.63 22 22.5 22H21.5V24.5C21.5 24.9 21.58 25.2902 21.73 25.6602C21.89 26.0202 22.1099 26.3601 22.3899 26.6401C22.6799 26.9101 23.0099 27.1298 23.3799 27.2798C23.7499 27.4298 24.14 27.51 24.54 27.5C26.17 27.48 27.5 26.1102 27.5 24.4502V22H26.5C26.37 22 26.2399 21.9501 26.1499 21.8501C26.0499 21.7601 26 21.63 26 21.5C26 21.37 26.0499 21.2399 26.1499 21.1499C26.2399 21.0499 26.37 21 26.5 21H28C28.13 21 28.2601 21.0499 28.3501 21.1499C28.4501 21.2399 28.5 21.37 28.5 21.5V24.4502C28.5 26.5002 26.97 28.2202 25 28.4702V31C25 31.53 25.2101 32.0402 25.5901 32.4102C25.9601 32.7902 26.47 33 27 33H28.5C28.95 33 29.39 32.8401 29.75 32.5601C30.1 32.2801 30.35 31.8799 30.45 31.4399C29.85 31.2999 29.32 30.9499 28.96 30.4399C28.6 29.9399 28.44 29.3202 28.52 28.7002C28.59 28.0902 28.8901 27.5199 29.3601 27.1099C29.8201 26.7099 30.42 26.49 31.04 26.5C31.66 26.51 32.25 26.7499 32.7 27.1699C33.16 27.5899 33.44 28.1698 33.49 28.7798C33.54 29.3998 33.37 30.0198 32.99 30.5098C32.62 30.9998 32.07 31.3402 31.47 31.4502V31.46ZM32.5 29C32.5 28.7 32.41 28.4099 32.25 28.1699C32.08 27.9199 31.8501 27.7299 31.5701 27.6099C31.3001 27.4999 31 27.4698 30.71 27.5298C30.42 27.5898 30.1499 27.7299 29.9399 27.9399C29.7299 28.1499 29.59 28.42 29.53 28.71C29.47 29 29.5001 29.2998 29.6101 29.5698C29.7301 29.8498 29.9199 30.08 30.1699 30.25C30.4099 30.41 30.7 30.5 31 30.5C31.4 30.5 31.7801 30.3401 32.0601 30.0601C32.3401 29.7801 32.5 29.4 32.5 29Z" fill="#050505"/>
<path d="M127 8H75C64.5066 8 56 16.5066 56 27C56 37.4934 64.5066 46 75 46H127C137.493 46 146 37.4934 146 27C146 16.5066 137.493 8 127 8Z" fill="#FEFEFE"/>
<path d="M79.1604 31C78.4604 31 77.9205 30.8999 77.5205 30.6899C77.1405 30.4699 76.8704 30.1402 76.7104 29.7002C76.5604 29.2602 76.4805 28.69 76.4805 28C76.4805 27.31 76.5604 26.7501 76.7104 26.3101C76.8704 25.8601 77.1405 25.5298 77.5205 25.3198C77.9205 25.1098 78.4604 25 79.1604 25H81.6404V30.52H80.7004V25.4399L81.1804 25.8501H79.1604C78.6904 25.8501 78.3306 25.91 78.0806 26.02C77.8306 26.13 77.6605 26.3402 77.5605 26.6602C77.4605 26.9602 77.4204 27.41 77.4204 28C77.4204 28.59 77.4605 29.0399 77.5605 29.3599C77.6605 29.6599 77.8306 29.87 78.0806 29.98C78.3306 30.09 78.6904 30.1499 79.1604 30.1499H82.9404V31H79.1604ZM82.9404 31V30.1499C82.9804 30.1499 83.0205 30.1602 83.0605 30.1802C83.0905 30.2002 83.1104 30.23 83.1304 30.27C83.1404 30.3 83.1604 30.3399 83.1604 30.3999C83.1704 30.4499 83.1804 30.4998 83.1804 30.5698C83.1804 30.6298 83.1704 30.69 83.1604 30.75C83.1604 30.8 83.1404 30.8501 83.1304 30.8901C83.1104 30.9201 83.0905 30.95 83.0605 30.98C83.0205 30.99 82.9804 31 82.9404 31ZM77.9905 23.9199V22.8398H78.9304V23.9199H77.9905ZM79.6404 23.9199V22.8398H80.5706V23.9199H79.6404ZM85.1704 31V30.1499H86.4705V31H85.1704ZM86.4705 31V30.1499C86.5105 30.1499 86.5506 30.1602 86.5906 30.1802C86.6206 30.2002 86.6404 30.23 86.6604 30.27C86.6704 30.3 86.6904 30.3399 86.6904 30.3999C86.7004 30.4499 86.7104 30.4998 86.7104 30.5698C86.7104 30.6298 86.7004 30.69 86.6904 30.75C86.6904 30.8 86.6704 30.8501 86.6604 30.8901C86.6404 30.9201 86.6206 30.95 86.5906 30.98C86.5506 30.99 86.5105 31 86.4705 31ZM82.9404 31C82.8904 31 82.8506 30.99 82.8206 30.98C82.7906 30.95 82.7605 30.9201 82.7505 30.8901C82.7305 30.8501 82.7204 30.8 82.7104 30.75C82.7004 30.69 82.7004 30.6298 82.7004 30.5698C82.7004 30.4798 82.7105 30.4101 82.7205 30.3501C82.7305 30.2901 82.7505 30.24 82.7905 30.21C82.8305 30.17 82.8704 30.1499 82.9404 30.1499V31ZM82.9404 31V30.1499H84.6704L84.2305 30.5V25H85.1704V31H82.9404ZM83.4204 33.1602V32.0801H84.3506V33.1602H83.4204ZM85.0605 33.1602V32.0801H86.0005V33.1602H85.0605ZM95.4905 31V30.1499H96.7805V31H95.4905ZM86.4604 31C86.4204 31 86.3806 30.99 86.3406 30.98C86.3106 30.95 86.2905 30.9201 86.2705 30.8901C86.2605 30.8501 86.2405 30.8 86.2405 30.75C86.2305 30.69 86.2205 30.6298 86.2205 30.5698C86.2205 30.4798 86.2305 30.4101 86.2505 30.3501C86.2605 30.2901 86.2806 30.24 86.3206 30.21C86.3506 30.17 86.4004 30.1499 86.4604 30.1499V31ZM92.7805 31C92.5005 31 92.2405 30.9498 91.9705 30.8398C91.7205 30.7398 91.4705 30.5801 91.2305 30.3501L91.8406 29.7202C92.0206 29.8702 92.1906 29.9798 92.3306 30.0498C92.4806 30.1198 92.6205 30.1499 92.7805 30.1499H94.9104L94.5505 30.5298V27.6602C94.5505 27.5202 94.5405 27.3198 94.5005 27.0498C94.4805 26.7898 94.4404 26.4902 94.3804 26.1602C94.3404 25.8302 94.2804 25.4902 94.2004 25.1602L95.1206 25C95.1706 25.28 95.2305 25.5899 95.2805 25.9399C95.3405 26.2799 95.3904 26.6099 95.4304 26.9199C95.4704 27.2199 95.4905 27.4702 95.4905 27.6602V31H92.7805ZM86.4604 31V30.1499H88.2205L87.9805 30.3901V26.2002H88.9004V31H86.4604ZM88.9004 31V30.1499H90.2605C90.5305 30.1499 90.7306 30.1098 90.8706 30.0298C91.0106 29.9498 91.1104 29.7898 91.1704 29.5498C91.2204 29.3098 91.2505 28.9602 91.2505 28.4902V25.6001H92.1904V28.4902C92.1904 29.1202 92.1205 29.61 91.9805 29.98C91.8605 30.35 91.6506 30.61 91.3706 30.77C91.0906 30.92 90.7205 31 90.2605 31H88.9004ZM96.7805 31V30.1499C96.8305 30.1499 96.8704 30.1602 96.9004 30.1802C96.9404 30.2002 96.9605 30.23 96.9805 30.27C96.9905 30.3 97.0005 30.3399 97.0105 30.3999C97.0205 30.4499 97.0205 30.4998 97.0205 30.5698C97.0205 30.6298 97.0205 30.69 97.0105 30.75C97.0005 30.8 96.9905 30.8501 96.9805 30.8901C96.9605 30.9201 96.9404 30.95 96.9004 30.98C96.8704 30.99 96.8305 31 96.7805 31ZM99.0205 31V30.1499H100.321V31H99.0205ZM100.321 31V30.1499C100.371 30.1499 100.41 30.1602 100.44 30.1802C100.47 30.2002 100.49 30.23 100.51 30.27C100.53 30.3 100.541 30.3399 100.551 30.3999C100.551 30.4499 100.561 30.4998 100.561 30.5698C100.561 30.6298 100.551 30.69 100.551 30.75C100.541 30.8 100.53 30.8501 100.51 30.8901C100.49 30.9201 100.47 30.95 100.44 30.98C100.41 30.99 100.371 31 100.321 31ZM96.7905 31C96.7405 31 96.7004 30.99 96.6704 30.98C96.6404 30.95 96.6106 30.9201 96.6006 30.8901C96.5806 30.8501 96.5705 30.8 96.5605 30.75C96.5505 30.69 96.5505 30.6298 96.5505 30.5698C96.5505 30.4798 96.5606 30.4101 96.5706 30.3501C96.5806 30.2901 96.6104 30.24 96.6504 30.21C96.6804 30.17 96.7305 30.1499 96.7905 30.1499V31ZM96.7905 31V30.1499H98.5205L98.0906 30.5V25H99.0205V31H96.7905ZM97.2705 33.1602V32.0801H98.2104V33.1602H97.2705ZM98.9104 33.1602V32.0801H99.8506V33.1602H98.9104ZM100.321 31V30.1499H102.041L101.611 30.5V25H102.551V31H100.321ZM100.321 31C100.271 31 100.23 30.99 100.2 30.98C100.16 30.95 100.141 30.9201 100.121 30.8901C100.111 30.8501 100.101 30.8 100.091 30.75C100.081 30.69 100.081 30.6298 100.081 30.5698C100.081 30.4798 100.081 30.4101 100.101 30.3501C100.111 30.2901 100.13 30.24 100.17 30.21C100.2 30.17 100.251 30.1499 100.321 30.1499V31ZM101.521 23.9199C101.391 23.7599 101.29 23.6002 101.22 23.4502C101.15 23.3002 101.121 23.1402 101.121 22.9702C101.121 22.7402 101.181 22.5301 101.291 22.3501C101.411 22.1601 101.56 22.0199 101.76 21.9199C101.95 21.8099 102.16 21.7598 102.38 21.7598C102.51 21.7598 102.64 21.7798 102.76 21.8198C102.89 21.8498 103.001 21.9 103.101 21.96L102.791 22.5C102.721 22.46 102.661 22.4402 102.601 22.4302C102.541 22.4202 102.48 22.4102 102.42 22.4102C102.23 22.4102 102.08 22.4601 101.97 22.5601C101.87 22.6701 101.821 22.8002 101.821 22.9702C101.821 23.0802 101.84 23.18 101.88 23.27C101.92 23.37 101.991 23.4701 102.081 23.5801L101.521 23.9199ZM100.89 23.9199V23.2798H103.26V23.9199H100.89ZM105.581 31V30.1499H107.121V31H105.581ZM103.621 33.6499C103.521 33.6499 103.411 33.6399 103.301 33.6299C103.181 33.6199 103.06 33.6101 102.95 33.6001L103.061 32.75C103.171 32.76 103.281 32.7698 103.371 32.7798C103.471 32.7898 103.551 32.7998 103.621 32.7998C104.001 32.7998 104.301 32.6601 104.541 32.3701C104.771 32.0901 104.88 31.6999 104.88 31.1899V25H105.821V31.1899C105.821 31.6799 105.721 32.11 105.531 32.48C105.351 32.85 105.09 33.1398 104.76 33.3398C104.44 33.5498 104.061 33.6499 103.621 33.6499ZM107.121 31V30.1499C107.161 30.1499 107.2 30.1602 107.24 30.1802C107.27 30.2002 107.291 30.23 107.311 30.27C107.321 30.3 107.341 30.3399 107.341 30.3999C107.351 30.4499 107.361 30.4998 107.361 30.5698C107.361 30.6298 107.351 30.69 107.341 30.75C107.341 30.8 107.321 30.8501 107.311 30.8901C107.291 30.9201 107.27 30.95 107.24 30.98C107.2 30.99 107.161 31 107.121 31ZM108.571 31V22.3999H109.5V31H108.571ZM107.111 31V30.1499H108.571V31H107.111ZM107.111 31C107.071 31 107.03 30.99 106.99 30.98C106.96 30.95 106.94 30.9201 106.92 30.8901C106.91 30.8501 106.89 30.8 106.89 30.75C106.88 30.69 106.871 30.6298 106.871 30.5698C106.871 30.4798 106.88 30.4101 106.9 30.3501C106.91 30.2901 106.93 30.24 106.97 30.21C107 30.17 107.051 30.1499 107.111 30.1499V31ZM111.571 31V22.3999H112.49V31H111.571Z" fill="#050505"/>
<path d="M133.71 25.79L128.71 20.79C128.52 20.61 128.27 20.5 128 20.5C127.73 20.5 127.48 20.61 127.29 20.79L122.29 25.79C122.2 25.89 122.13 26.0001 122.08 26.1201C122.03 26.2401 122 26.37 122 26.5V32.5C122 32.63 122.05 32.7601 122.15 32.8501C122.24 32.9501 122.37 33 122.5 33H133.5C133.63 33 133.76 32.9501 133.85 32.8501C133.95 32.7601 134 32.63 134 32.5V26.5C134 26.37 133.97 26.2401 133.92 26.1201C133.87 26.0001 133.8 25.89 133.71 25.79ZM133 32H123V26.5L128 21.5L133 26.5V32Z" fill="#050505"/>
</svg>
