<svg width="168" height="54" viewBox="0 0 168 54" fill="none" xmlns="http://www.w3.org/2000/svg">
<path d="M141 0H27C12.0883 0 0 12.0883 0 27C0 41.9117 12.0883 54 27 54H141C155.912 54 168 41.9117 168 27C168 12.0883 155.912 0 141 0Z" fill="#00AFF3"/>
<path d="M94 8H26C16.0589 8 8 16.0589 8 26V28C8 37.9411 16.0589 46 26 46H94C103.941 46 112 37.9411 112 28V26C112 16.0589 103.941 8 94 8Z" fill="#FEFEFE"/>
<path d="M20.0005 30.8306C19.6805 30.4706 19.4405 30.1105 19.2805 29.7505C19.1305 29.3905 19.0605 29.0106 19.0605 28.6006C19.0605 28.2006 19.1305 27.8305 19.2705 27.5005C19.4205 27.1605 19.6206 26.8704 19.8706 26.6304C20.1306 26.3804 20.4205 26.1905 20.7605 26.0605C21.1005 25.9205 21.4706 25.8506 21.8606 25.8506C22.1606 25.8506 22.4405 25.8907 22.7205 25.9707C23.0005 26.0507 23.2505 26.1605 23.4705 26.3105L22.9604 27.0205C22.7904 26.9005 22.6204 26.8203 22.4404 26.7803C22.2704 26.7303 22.0804 26.7007 21.8804 26.7007C21.5104 26.7007 21.1804 26.7904 20.8904 26.9604C20.6104 27.1204 20.3905 27.3404 20.2205 27.6304C20.0605 27.9104 19.9805 28.2306 19.9805 28.6006C19.9805 28.9006 20.0404 29.1807 20.1504 29.4507C20.2704 29.7207 20.4504 29.9905 20.7004 30.2705L20.0005 30.8306ZM18.4805 31.0005V30.1504H24.0405V31.0005H18.4805ZM26.6006 31.0005V30.1504H28.0706V31.0005H26.6006ZM25.6804 31.0005V22.4004H26.6006V31.0005H25.6804ZM28.0706 31.0005V30.1504C28.1206 30.1504 28.1604 30.1607 28.1904 30.1807C28.2204 30.2007 28.2405 30.2305 28.2605 30.2705C28.2805 30.3005 28.2905 30.3404 28.3005 30.4004C28.3005 30.4504 28.3105 30.5003 28.3105 30.5703C28.3105 30.6303 28.3005 30.6905 28.3005 30.7505C28.2905 30.8005 28.2805 30.8506 28.2605 30.8906C28.2405 30.9206 28.2204 30.9505 28.1904 30.9805C28.1604 30.9905 28.1206 31.0005 28.0706 31.0005ZM30.3005 31.0005V30.1504H31.5906V31.0005H30.3005ZM28.0706 31.0005C28.0206 31.0005 27.9804 30.9905 27.9504 30.9805C27.9104 30.9505 27.8906 30.9206 27.8706 30.8906C27.8606 30.8506 27.8506 30.8005 27.8406 30.7505C27.8306 30.6905 27.8306 30.6303 27.8306 30.5703C27.8306 30.4803 27.8306 30.4106 27.8506 30.3506C27.8606 30.2906 27.8804 30.2404 27.9204 30.2104C27.9504 30.1704 28.0006 30.1504 28.0706 30.1504V31.0005ZM28.0706 31.0005V30.1504H29.7905L29.3606 30.5005V25.0005H30.3005V31.0005H28.0706ZM31.5906 31.0005V30.1504C31.6406 30.1504 31.6804 30.1607 31.7104 30.1807C31.7504 30.2007 31.7705 30.2305 31.7905 30.2705C31.8005 30.3005 31.8106 30.3404 31.8206 30.4004C31.8306 30.4504 31.8306 30.5003 31.8306 30.5703C31.8306 30.6303 31.8306 30.6905 31.8206 30.7505C31.8106 30.8005 31.8005 30.8506 31.7905 30.8906C31.7705 30.9206 31.7504 30.9505 31.7104 30.9805C31.6804 30.9905 31.6406 31.0005 31.5906 31.0005ZM29.3606 33.1606V32.0806H30.3005V33.1606H29.3606ZM31.5906 31.0005V30.1504H39.5505L38.6904 30.9307V28.1104C38.6904 27.6004 38.6105 27.1904 38.4705 26.8604C38.3305 26.5204 38.1306 26.2706 37.8506 26.1006C37.5706 25.9406 37.2305 25.8506 36.8105 25.8506C36.4605 25.8506 36.1306 25.9103 35.8306 26.0303C35.5306 26.1403 35.2605 26.3007 35.0005 26.4907C34.7505 26.6707 34.5105 26.8804 34.2805 27.1104C34.0705 27.3404 33.8704 27.5603 33.6804 27.8003C33.5004 28.0303 33.3304 28.2407 33.1804 28.4307L32.8706 27.5806C33.1106 27.2706 33.3706 26.9606 33.6206 26.6606C33.8806 26.3506 34.1604 26.0806 34.4604 25.8306C34.7704 25.5806 35.1105 25.3805 35.4905 25.2305C35.8805 25.0805 36.3205 25.0005 36.8105 25.0005C37.3805 25.0005 37.8504 25.1005 38.2104 25.2905C38.5704 25.4805 38.8605 25.7405 39.0605 26.0605C39.2705 26.3705 39.4105 26.7005 39.4905 27.0605C39.5705 27.4205 39.6106 27.7704 39.6106 28.1104V31.0005H31.5906ZM32.3904 30.1504V22.4004H33.3206V30.1504H32.3904ZM31.5906 31.0005C31.5506 31.0005 31.5105 30.9905 31.4705 30.9805C31.4405 30.9505 31.4204 30.9206 31.4004 30.8906C31.3904 30.8506 31.3706 30.8005 31.3706 30.7505C31.3606 30.6905 31.3506 30.6303 31.3506 30.5703C31.3506 30.4803 31.3604 30.4106 31.3804 30.3506C31.3904 30.2906 31.4104 30.2404 31.4504 30.2104C31.4804 30.1704 31.5306 30.1504 31.5906 30.1504V31.0005ZM40.9905 31.0005V30.1504H46.8606L46.3306 30.6904V22.4004H47.2705V31.0005H40.9905ZM42.9104 30.1504V24.1006H43.8406V30.1504H42.9104ZM42.8206 23.3003C42.6906 23.1403 42.5905 22.9806 42.5205 22.8306C42.4505 22.6806 42.4204 22.5206 42.4204 22.3506C42.4204 22.1206 42.4806 21.9107 42.5906 21.7207C42.7106 21.5407 42.8605 21.4005 43.0605 21.2905C43.2505 21.1905 43.4604 21.1406 43.6804 21.1406C43.8104 21.1406 43.9405 21.1607 44.0605 21.2007C44.1905 21.2307 44.3004 21.2803 44.4004 21.3403L44.0906 21.8804C44.0206 21.8404 43.9604 21.8205 43.9004 21.8105C43.8404 21.7905 43.7805 21.7803 43.7205 21.7803C43.5305 21.7803 43.3805 21.8404 43.2705 21.9404C43.1705 22.0404 43.1206 22.1806 43.1206 22.3506C43.1206 22.4506 43.1404 22.5504 43.1804 22.6504C43.2204 22.7404 43.2904 22.8504 43.3804 22.9604L42.8206 23.3003ZM42.1904 23.3003V22.6606H44.5605V23.3003H42.1904ZM49.3904 31.0005V22.4004H50.3105V31.0005H49.3904ZM61.1904 31.0005V30.1504H62.4805V31.0005H61.1904ZM57.9504 33.9805C57.3104 33.9805 56.7405 33.8604 56.2305 33.6304C55.7205 33.4004 55.3105 33.0706 55.0205 32.6606C54.7205 32.2406 54.5706 31.7605 54.5706 31.2305C54.5706 31.0605 54.5906 30.8403 54.6106 30.5703C54.6406 30.2903 54.6805 29.9806 54.7205 29.6406C54.7705 29.3006 54.8206 28.9604 54.8706 28.6104C54.9306 28.2604 54.9805 27.9306 55.0305 27.6206L55.9504 27.7603C55.8704 28.3103 55.7904 28.8203 55.7104 29.3003C55.6504 29.7603 55.6005 30.1605 55.5605 30.5005C55.5305 30.8205 55.5105 31.0705 55.5105 31.2305C55.5105 31.6005 55.6105 31.9207 55.8105 32.2007C56.0205 32.4907 56.3104 32.7106 56.6704 32.8706C57.0404 33.0406 57.4704 33.1206 57.9504 33.1206C58.4304 33.1206 58.8404 33.0504 59.1804 32.9004C59.5304 32.7404 59.7905 32.5303 59.9705 32.2603C60.1605 31.9903 60.2505 31.6703 60.2505 31.3003V22.4004H61.1904V31.3003C61.1904 31.8603 61.0405 32.3407 60.7405 32.7407C60.4505 33.1407 60.0706 33.4404 59.5806 33.6504C59.0906 33.8704 58.5504 33.9805 57.9504 33.9805ZM62.4805 31.0005V30.1504C62.5305 30.1504 62.5706 30.1607 62.6006 30.1807C62.6306 30.2007 62.6604 30.2305 62.6704 30.2705C62.6904 30.3005 62.7004 30.3404 62.7104 30.4004C62.7204 30.4504 62.7205 30.5003 62.7205 30.5703C62.7205 30.6303 62.7204 30.6905 62.7104 30.7505C62.7004 30.8005 62.6904 30.8506 62.6704 30.8906C62.6604 30.9206 62.6306 30.9505 62.6006 30.9805C62.5706 30.9905 62.5305 31.0005 62.4805 31.0005ZM68.4204 31.0005V30.1504H69.7205V31.0005H68.4204ZM62.4805 31.0005C62.4405 31.0005 62.4006 30.9905 62.3606 30.9805C62.3306 30.9505 62.3105 30.9206 62.2905 30.8906C62.2805 30.8506 62.2605 30.8005 62.2605 30.7505C62.2505 30.6905 62.2405 30.6303 62.2405 30.5703C62.2405 30.4803 62.2505 30.4106 62.2705 30.3506C62.2805 30.2906 62.3006 30.2404 62.3406 30.2104C62.3706 30.1704 62.4205 30.1504 62.4805 30.1504V31.0005ZM62.4805 31.0005V30.1504H67.7805L67.4905 30.4004V27.4204C67.4905 26.9004 67.3205 26.5203 67.0005 26.2603C66.6805 26.0003 66.1805 25.8604 65.5205 25.8604C65.3105 25.8604 65.0106 25.8804 64.6206 25.9204C64.2306 25.9604 63.8204 26.0003 63.3804 26.0703L63.2805 25.3003C63.6005 25.2203 63.9606 25.1506 64.3606 25.1006C64.7506 25.0306 65.1305 25.0005 65.5005 25.0005C66.1005 25.0005 66.6205 25.1005 67.0605 25.2905C67.5005 25.4705 67.8305 25.7406 68.0605 26.1006C68.3005 26.4606 68.4204 26.9004 68.4204 27.4204V31.0005H62.4805ZM69.7205 31.0005V30.1504C69.7705 30.1504 69.8106 30.1607 69.8406 30.1807C69.8706 30.2007 69.9004 30.2305 69.9104 30.2705C69.9304 30.3005 69.9404 30.3404 69.9504 30.4004C69.9604 30.4504 69.9604 30.5003 69.9604 30.5703C69.9604 30.6303 69.9604 30.6905 69.9504 30.7505C69.9404 30.8005 69.9304 30.8506 69.9104 30.8906C69.9004 30.9206 69.8706 30.9505 69.8406 30.9805C69.8106 30.9905 69.7705 31.0005 69.7205 31.0005ZM65.0305 33.1606V32.0806H65.9604V33.1606H65.0305ZM76.0305 31.0005C75.7505 31.0005 75.4905 30.9503 75.2205 30.8403C74.9705 30.7403 74.7205 30.5806 74.4805 30.3506L75.0906 29.7207C75.2706 29.8707 75.4406 29.9803 75.5806 30.0503C75.7306 30.1203 75.8705 30.1504 76.0305 30.1504H78.1604L77.8005 30.5303V27.6606C77.8005 27.5206 77.7905 27.3203 77.7505 27.0503C77.7305 26.7903 77.6904 26.4906 77.6304 26.1606C77.5904 25.8306 77.5304 25.4906 77.4504 25.1606L78.3706 25.0005C78.4206 25.2805 78.4805 25.5904 78.5305 25.9404C78.5905 26.2804 78.6404 26.6104 78.6804 26.9204C78.7204 27.2204 78.7405 27.4706 78.7405 27.6606V31.0005H76.0305ZM69.7104 31.0005V30.1504H71.4705L71.2305 30.3906V26.2007H72.1504V31.0005H69.7104ZM72.1504 31.0005V30.1504H73.5105C73.7805 30.1504 73.9806 30.1103 74.1206 30.0303C74.2606 29.9503 74.3604 29.7903 74.4204 29.5503C74.4704 29.3103 74.5005 28.9607 74.5005 28.4907V25.6006H75.4404V28.4907C75.4404 29.1207 75.3705 29.6105 75.2305 29.9805C75.1105 30.3505 74.9006 30.6105 74.6206 30.7705C74.3406 30.9205 73.9705 31.0005 73.5105 31.0005H72.1504ZM69.7104 31.0005C69.6704 31.0005 69.6306 30.9905 69.5906 30.9805C69.5606 30.9505 69.5405 30.9206 69.5205 30.8906C69.5105 30.8506 69.4905 30.8005 69.4905 30.7505C69.4805 30.6905 69.4705 30.6303 69.4705 30.5703C69.4705 30.4803 69.4805 30.4106 69.5005 30.3506C69.5105 30.2906 69.5306 30.2404 69.5706 30.2104C69.6006 30.1704 69.6504 30.1504 69.7104 30.1504V31.0005Z" fill="#050505"/>
<path d="M99.75 29C99.75 29.15 99.7101 29.2899 99.6201 29.4199C99.5401 29.5399 99.42 29.6399 99.29 29.6899C99.15 29.7499 99.0001 29.7602 98.8501 29.7402C98.7101 29.7102 98.57 29.6398 98.47 29.5298C98.36 29.4298 98.29 29.2899 98.26 29.1499C98.24 28.9999 98.2501 28.85 98.3101 28.71C98.3601 28.58 98.4601 28.4599 98.5801 28.3799C98.7101 28.2899 98.85 28.25 99 28.25C99.2 28.25 99.39 28.3302 99.53 28.4702C99.67 28.6102 99.75 28.8 99.75 29ZM99.47 31.46C99.36 32.16 99 32.8098 98.45 33.2798C97.91 33.7398 97.22 34 96.5 34H95C94.2 34 93.4399 33.6801 92.8799 33.1201C92.3199 32.5601 92 31.8 92 31V28.4702C91.03 28.3502 90.14 27.8799 89.5 27.1499C88.86 26.4099 88.5 25.47 88.5 24.5V21.5C88.5 21.37 88.5499 21.2399 88.6499 21.1499C88.7399 21.0499 88.87 21 89 21H90.5C90.63 21 90.7601 21.0499 90.8501 21.1499C90.9501 21.2399 91 21.37 91 21.5C91 21.63 90.9501 21.7601 90.8501 21.8501C90.7601 21.9501 90.63 22 90.5 22H89.5V24.5C89.5 24.9 89.58 25.2902 89.73 25.6602C89.89 26.0202 90.1099 26.3601 90.3899 26.6401C90.6799 26.9101 91.0099 27.1298 91.3799 27.2798C91.7499 27.4298 92.14 27.51 92.54 27.5C94.17 27.48 95.5 26.1102 95.5 24.4502V22H94.5C94.37 22 94.2399 21.9501 94.1499 21.8501C94.0499 21.7601 94 21.63 94 21.5C94 21.37 94.0499 21.2399 94.1499 21.1499C94.2399 21.0499 94.37 21 94.5 21H96C96.13 21 96.2601 21.0499 96.3501 21.1499C96.4501 21.2399 96.5 21.37 96.5 21.5V24.4502C96.5 26.5002 94.97 28.2202 93 28.4702V31C93 31.53 93.2101 32.0402 93.5901 32.4102C93.9601 32.7902 94.47 33 95 33H96.5C96.95 33 97.39 32.8401 97.75 32.5601C98.1 32.2801 98.35 31.8799 98.45 31.4399C97.85 31.2999 97.32 30.9499 96.96 30.4399C96.6 29.9399 96.44 29.3202 96.52 28.7002C96.59 28.0902 96.8901 27.5199 97.3601 27.1099C97.8201 26.7099 98.42 26.49 99.04 26.5C99.66 26.51 100.25 26.7499 100.7 27.1699C101.16 27.5899 101.44 28.1698 101.49 28.7798C101.54 29.3998 101.37 30.0198 100.99 30.5098C100.62 30.9998 100.07 31.3402 99.47 31.4502V31.46ZM100.5 29C100.5 28.7 100.41 28.4099 100.25 28.1699C100.08 27.9199 99.8501 27.7299 99.5701 27.6099C99.3001 27.4999 99 27.4698 98.71 27.5298C98.42 27.5898 98.1499 27.7299 97.9399 27.9399C97.7299 28.1499 97.59 28.42 97.53 28.71C97.47 29 97.5001 29.2998 97.6101 29.5698C97.7301 29.8498 97.9199 30.08 98.1699 30.25C98.4099 30.41 98.7 30.5 99 30.5C99.4 30.5 99.7801 30.3401 100.06 30.0601C100.34 29.7801 100.5 29.4 100.5 29Z" fill="#050505"/>
<path d="M160 27C160 17.0589 151.941 9 142 9C132.059 9 124 17.0589 124 27C124 36.9411 132.059 45 142 45C151.941 45 160 36.9411 160 27Z" fill="#FEFEFE"/>
<path d="M147.71 25.79L142.71 20.79C142.52 20.61 142.27 20.5 142 20.5C141.73 20.5 141.48 20.61 141.29 20.79L136.29 25.79C136.2 25.89 136.13 26.0001 136.08 26.1201C136.03 26.2401 136 26.37 136 26.5V32.5C136 32.63 136.05 32.7601 136.15 32.8501C136.24 32.9501 136.37 33 136.5 33H147.5C147.63 33 147.76 32.9501 147.85 32.8501C147.95 32.7601 148 32.63 148 32.5V26.5C148 26.37 147.97 26.2401 147.92 26.1201C147.87 26.0001 147.8 25.89 147.71 25.79ZM147 32H137V26.5L142 21.5L147 26.5V32Z" fill="#050505"/>
</svg>
